<?xml version="1.0" standalone="no"?><!DOCTYPE svg PUBLIC "-//W3C//DTD SVG 1.1//EN" "http://www.w3.org/Graphics/SVG/1.1/DTD/svg11.dtd"><svg t="1665456307846" class="icon" viewBox="0 0 1024 1024" version="1.1" xmlns="http://www.w3.org/2000/svg" p-id="1529" xmlns:xlink="http://www.w3.org/1999/xlink" width="200" height="200"><path d="M696.06 668.44c0 282.77-154.73 355.56-345.6 355.56S4.86 951.21 4.86 668.44 159.59 0 350.46 0s345.6 385.67 345.6 668.44z" fill="#25467A" p-id="1530"></path><path d="M600.05 903.12c-89.17-89.17-87.88-166.55 4.3-258.74 124.64-124.63 334.5-198.95 393.95-139.5 59.45 59.45-14.87 269.3-139.51 393.94-92.19 92.18-169.57 93.47-258.74 4.3z" fill="#25467A" p-id="1531"></path><path d="M636.26 866.92c-68.9-68.9-67.85-114.18 4.3-186.33 126.8-126.8 299.24-161.8 321.53-139.51s-12.71 194.73-139.51 321.53c-72.15 72.16-117.42 73.21-186.32 4.31z" fill="#949394" p-id="1532"></path><path d="M939.99 612.7c-2.31-40.87 6.59-50.93 3.28-54.24-3.31-3.31-13.37 5.58-54.24 3.28-47.76-2.69-116.81 41.06-206.28 130.53-76.52 76.52-85.91 116.49-38.72 164.26l-0.03 0.03c0.1 0.1 0.2 0.18 0.31 0.28 0.1 0.1 0.18 0.2 0.28 0.31 0.1 0.1 0.2 0.18 0.31 0.28 0.1 0.1 0.18 0.2 0.28 0.31l0.03-0.03c47.77 47.19 87.74 37.8 164.26-38.72 89.46-89.48 133.22-158.52 130.52-206.29z" fill="#FBEDD5" p-id="1533"></path><path d="M350.46 998.4c-221.31 0-320-101.76-320-329.96 0-280.69 155.18-642.84 320-642.84s320 362.15 320 642.84c0 228.2-98.69 329.96-320 329.96z" fill="#25467A" p-id="1534"></path><path d="M350.46 972.8c-206.36 0-294.4-91.02-294.4-304.36 0-288.43 156.83-617.24 294.4-617.24s294.4 328.81 294.4 617.24c0 213.34-88.04 304.36-294.4 304.36z" fill="#FBEDD5" p-id="1535"></path><path d="M350.46 972.8c-149.12 0-212.74-91.02-212.74-304.36 0-288.43 113.33-617.24 212.74-617.24S563.2 380.01 563.2 668.44c0 213.34-63.62 304.36-212.74 304.36z" fill="#949394" p-id="1536"></path><path d="M350.46 972.8c-50.42 0-71.94-91.02-71.94-304.36 0-288.43 38.32-617.24 71.94-617.24s71.94 328.81 71.94 617.24c0 213.34-21.51 304.36-71.94 304.36z" fill="#FBEDD5" p-id="1537"></path><path d="M350.46 972.8c-32.48 0-46.34-91.02-46.34-304.36 0-288.43 24.68-617.24 46.34-617.24 21.65 0 46.34 328.81 46.34 617.24 0 213.34-13.86 304.36-46.34 304.36z" fill="#949394" p-id="1538"></path><path d="M350.46 550.4c-35.29 0-64-28.71-64-64 0-7.07 5.73-12.8 12.8-12.8s12.8 5.73 12.8 12.8c0 21.18 17.22 38.4 38.4 38.4 21.17 0 38.4-17.22 38.4-38.4 0-7.07 5.73-12.8 12.8-12.8s12.8 5.73 12.8 12.8c0 35.29-28.71 64-64 64z" fill="#25467A" p-id="1539"></path><path d="M222.46 384m-38.4 0a38.4 38.4 0 1 0 76.8 0 38.4 38.4 0 1 0-76.8 0Z" fill="#25467A" p-id="1540"></path><path d="M478.46 384m-38.4 0a38.4 38.4 0 1 0 76.8 0 38.4 38.4 0 1 0-76.8 0Z" fill="#25467A" p-id="1541"></path><path d="M171.26 448h-51.2c-14.14 0-25.6 11.46-25.6 25.6s11.46 25.6 25.6 25.6h51.2c14.14 0 25.6-11.46 25.6-25.6S185.4 448 171.26 448zM580.86 448h-51.2c-14.14 0-25.6 11.46-25.6 25.6s11.46 25.6 25.6 25.6h51.2c14.14 0 25.6-11.46 25.6-25.6S595 448 580.86 448z" fill="#FFAA9D" p-id="1542"></path></svg>