<?xml version="1.0" standalone="no"?><!DOCTYPE svg PUBLIC "-//W3C//DTD SVG 1.1//EN" "http://www.w3.org/Graphics/SVG/1.1/DTD/svg11.dtd"><svg t="1665456311178" class="icon" viewBox="0 0 1024 1024" version="1.1" xmlns="http://www.w3.org/2000/svg" p-id="1690" xmlns:xlink="http://www.w3.org/1999/xlink" width="200" height="200"><path d="M696.06 668.44c0 282.77-154.73 355.56-345.6 355.56S4.86 951.21 4.86 668.44 159.59 0 350.46 0s345.6 385.67 345.6 668.44z" fill="#25467A" p-id="1691"></path><path d="M600.05 903.12c-89.17-89.17-87.88-166.55 4.3-258.74 124.64-124.63 334.5-198.95 393.95-139.5 59.45 59.45-14.87 269.3-139.51 393.94-92.19 92.18-169.57 93.47-258.74 4.3z" fill="#25467A" p-id="1692"></path><path d="M636.26 866.92c-68.9-68.9-67.85-114.18 4.3-186.33 126.8-126.8 299.24-161.8 321.53-139.51s-12.71 194.73-139.51 321.53c-72.15 72.16-117.42 73.21-186.32 4.31z" fill="#AD6418" p-id="1693"></path><path d="M962.09 541.08c7.58 7.58-7.23 27.25-60.93 80.95-94.37 94.37-179.13 164.01-181.58 161.55-2.45-2.45 67.18-87.21 161.55-181.58 53.71-53.69 73.38-68.5 80.96-60.92z" fill="#33241C" p-id="1694"></path><path d="M350.46 998.4c-221.31 0-320-101.76-320-329.96 0-280.69 155.18-642.84 320-642.84s320 362.15 320 642.84c0 228.2-98.69 329.96-320 329.96z" fill="#25467A" p-id="1695"></path><path d="M350.46 972.8c-206.36 0-294.4-91.02-294.4-304.36 0-288.43 156.83-617.24 294.4-617.24s294.4 328.81 294.4 617.24c0 213.34-88.04 304.36-294.4 304.36z" fill="#AD6418" p-id="1696"></path><path d="M350.46 947.2c-190.92 0-268.8-80.76-268.8-278.76 0-293.51 156.39-591.64 268.8-591.64s268.8 298.14 268.8 591.64c0 198-77.87 278.76-268.8 278.76z" fill="#FEE2B8" p-id="1697"></path><path d="M350.46 550.4c-35.29 0-64-28.71-64-64 0-7.07 5.73-12.8 12.8-12.8s12.8 5.73 12.8 12.8c0 21.18 17.22 38.4 38.4 38.4 21.17 0 38.4-17.22 38.4-38.4 0-7.07 5.73-12.8 12.8-12.8s12.8 5.73 12.8 12.8c0 35.29-28.71 64-64 64z" fill="#25467A" p-id="1698"></path><path d="M222.46 384m-38.4 0a38.4 38.4 0 1 0 76.8 0 38.4 38.4 0 1 0-76.8 0Z" fill="#25467A" p-id="1699"></path><path d="M478.46 384m-38.4 0a38.4 38.4 0 1 0 76.8 0 38.4 38.4 0 1 0-76.8 0Z" fill="#25467A" p-id="1700"></path><path d="M171.26 448h-51.2c-14.14 0-25.6 11.46-25.6 25.6s11.46 25.6 25.6 25.6h51.2c14.14 0 25.6-11.46 25.6-25.6S185.4 448 171.26 448zM580.86 448h-51.2c-14.14 0-25.6 11.46-25.6 25.6s11.46 25.6 25.6 25.6h51.2c14.14 0 25.6-11.46 25.6-25.6S595 448 580.86 448z" fill="#FFAA9D" p-id="1701"></path></svg>