<?xml version="1.0" standalone="no"?><!DOCTYPE svg PUBLIC "-//W3C//DTD SVG 1.1//EN" "http://www.w3.org/Graphics/SVG/1.1/DTD/svg11.dtd"><svg t="1665456316940" class="icon" viewBox="0 0 1024 1024" version="1.1" xmlns="http://www.w3.org/2000/svg" p-id="1849" xmlns:xlink="http://www.w3.org/1999/xlink" width="200" height="200"><path d="M597.71 903.12c-89.17-89.17-60.73-193.7 31.46-285.89C753.8 492.6 936.5 445.43 995.95 504.88s12.28 242.15-112.35 366.79c-92.19 92.18-196.72 120.62-285.89 31.45z" fill="#25467A" p-id="1850"></path><path d="M348.12 1024c-213.18 0-345.6-160.76-345.6-419.56 0-145.52 41.02-303.09 108.46-421.26-11.51-33.69 2.43-77.41 39.05-114.02 27.31-27.31 59.83-42.97 89.23-42.97 4.59 0 9.09 0.39 13.46 1.15C284.09 9.18 316.07 0 348.12 0c31.45 0 62.94 8.91 93.9 26.53 1.81-0.12 3.63-0.18 5.48-0.18 29.34 0 61.78 15.61 88.99 42.83 32.51 32.51 47.15 70.61 41.96 102.33 71.54 119.36 115.27 282.23 115.27 432.94 0 258.79-132.43 419.55-345.6 419.55z" fill="#25467A" p-id="1851"></path><path d="M633.91 866.92c-68.9-68.9-40.7-141.33 31.45-213.48 126.8-126.8 272.09-134.65 294.38-112.35s14.45 167.58-112.35 294.38c-72.15 72.15-144.58 100.35-213.48 31.45z" fill="#272727" p-id="1852"></path><path d="M672.44 828.39c-51.18-51.18-25.12-110.11 35.82-171.05 107.1-107.1 222.81-120.72 239.38-104.15 16.56 16.56 2.94 132.28-104.15 239.38-60.94 60.93-119.86 87-171.05 35.82z" fill="#DB7C00" p-id="1853"></path><path d="M698.04 802.79c-36.65-36.65-15.8-81.03 30.97-127.79 82.19-82.19 168.37-95.27 180.23-83.41 11.86 11.86-1.22 98.04-83.41 180.23-46.76 46.77-91.14 67.62-127.79 30.97z" fill="#FCAF6D" p-id="1854"></path><path d="M348.12 998.4c-200.38 0-320-147.28-320-393.96 0-146.09 42.47-304.5 111.78-419.99-16.04-24.59-5.14-63.81 28.24-97.19 22.21-22.21 48.81-35.48 71.12-35.48 6.31 0 12.21 1.02 17.58 3.01 30.29-19.39 60.93-29.21 91.28-29.21 29.32 0 59.01 9.23 88.44 27.46 3.49-0.74 7.16-1.11 10.94-1.11 22.27 0 48.77 13.21 70.89 35.33 29.64 29.64 41.56 63.89 32.61 88.41 72.52 116.2 117.12 278.59 117.12 428.76 0 246.69-119.63 393.97-320 393.97z" fill="#25467A" p-id="1855"></path><path d="M520.15 175.09c0.92-0.61 1.97-1.05 2.76-1.84 12.5-12.5 2.37-42.89-22.63-67.88-24.24-24.24-53.42-34.31-66.56-23.5-27.87-19.62-56.78-30.67-85.6-30.67-30.92 0-61.95 12.66-91.68 35.06-0.71-1.22-1.33-2.51-2.33-3.51-12.5-12.5-42.89-2.37-67.88 22.63-24.99 24.99-35.12 55.39-22.63 67.88 2.71 2.71 6.38 4.16 10.53 4.82C103.72 285.01 53.72 445.54 53.72 604.44c0 230.65 110.06 368.36 294.4 368.36s294.4-137.71 294.4-368.36c0-160.38-50.93-322.43-122.37-429.35z" fill="#272727" p-id="1856"></path><path d="M348.12 921.6c-135.2 0-212.74-115.6-212.74-317.16 0-258.59 119.85-502.04 212.74-502.04s212.74 243.46 212.74 502.04c0 201.56-77.55 317.16-212.74 317.16z" fill="#DB7C00" p-id="1857"></path><path d="M348.12 883.2c-102.66 0-161.54-108.38-161.54-297.33 0-242.43 91-470.67 161.54-470.67s161.54 228.24 161.54 470.67c0 188.96-58.88 297.33-161.54 297.33z" fill="#FCAF6D" p-id="1858"></path><path d="M348.12 550.4c-35.29 0-64-28.71-64-64 0-7.07 5.73-12.8 12.8-12.8s12.8 5.73 12.8 12.8c0 21.18 17.23 38.4 38.4 38.4 21.18 0 38.4-17.22 38.4-38.4 0-7.07 5.73-12.8 12.8-12.8s12.8 5.73 12.8 12.8c0 35.29-28.71 64-64 64z" fill="#25467A" p-id="1859"></path><path d="M220.12 384m-38.4 0a38.4 38.4 0 1 0 76.8 0 38.4 38.4 0 1 0-76.8 0Z" fill="#25467A" p-id="1860"></path><path d="M476.12 384m-38.4 0a38.4 38.4 0 1 0 76.8 0 38.4 38.4 0 1 0-76.8 0Z" fill="#25467A" p-id="1861"></path><path d="M168.92 448h-51.2c-14.14 0-25.6 11.46-25.6 25.6s11.46 25.6 25.6 25.6h51.2c14.14 0 25.6-11.46 25.6-25.6s-11.46-25.6-25.6-25.6zM578.52 448h-51.2c-14.14 0-25.6 11.46-25.6 25.6s11.46 25.6 25.6 25.6h51.2c14.14 0 25.6-11.46 25.6-25.6s-11.46-25.6-25.6-25.6z" fill="#FFAA9D" p-id="1862"></path></svg>